<mxfile host="app.diagrams.net" modified="2021-04-16T13:01:28.392Z" agent="5.0 (Windows NT 10.0; Win64; x64) AppleWebKit/537.36 (KHTML, like Gecko) Chrome/89.0.4389.128 Safari/537.36" etag="gCdciNnGy3aik1iMcklw" version="14.6.1" type="github">
  <diagram id="6a731a19-8d31-9384-78a2-239565b7b9f0" name="Page-1">
    <mxGraphModel dx="1117" dy="624" grid="1" gridSize="10" guides="1" tooltips="1" connect="1" arrows="1" fold="1" page="1" pageScale="1" pageWidth="1169" pageHeight="827" background="#114B5F" math="0" shadow="0">
      <root>
        <mxCell id="0" />
        <mxCell id="1" parent="0" />
        <mxCell id="1522" value="Pine" style="rounded=1;fillColor=#F45B69;strokeColor=none;strokeWidth=3;shadow=0;html=1;fontColor=#E4FDE1;" parent="1" vertex="1">
          <mxGeometry x="67" y="641.5" width="120" height="40" as="geometry" />
        </mxCell>
        <mxCell id="VRsQ3zNPmExDssfTMrNo-1592" value="" style="edgeStyle=orthogonalEdgeStyle;curved=0;rounded=1;sketch=0;orthogonalLoop=1;jettySize=auto;html=1;fontColor=#E4FDE1;strokeColor=#028090;fillColor=#F45B69;" edge="1" parent="1" source="VRsQ3zNPmExDssfTMrNo-1590" target="VRsQ3zNPmExDssfTMrNo-1591">
          <mxGeometry relative="1" as="geometry" />
        </mxCell>
        <mxCell id="VRsQ3zNPmExDssfTMrNo-1594" value="" style="edgeStyle=orthogonalEdgeStyle;curved=0;rounded=1;sketch=0;orthogonalLoop=1;jettySize=auto;html=1;fontColor=#E4FDE1;strokeColor=#028090;fillColor=#F45B69;" edge="1" parent="1" source="VRsQ3zNPmExDssfTMrNo-1590" target="VRsQ3zNPmExDssfTMrNo-1593">
          <mxGeometry relative="1" as="geometry" />
        </mxCell>
        <mxCell id="VRsQ3zNPmExDssfTMrNo-1590" value="&lt;font style=&quot;font-size: 34px&quot;&gt;CP&lt;/font&gt;" style="rounded=1;whiteSpace=wrap;html=1;sketch=0;fontColor=#E4FDE1;strokeColor=#028090;fillColor=#F45B69;" vertex="1" parent="1">
          <mxGeometry x="520" y="450" width="120" height="60" as="geometry" />
        </mxCell>
        <mxCell id="VRsQ3zNPmExDssfTMrNo-1596" value="" style="edgeStyle=orthogonalEdgeStyle;curved=0;rounded=1;sketch=0;orthogonalLoop=1;jettySize=auto;html=1;fontColor=#E4FDE1;strokeColor=#028090;fillColor=#F45B69;" edge="1" parent="1" source="VRsQ3zNPmExDssfTMrNo-1591" target="VRsQ3zNPmExDssfTMrNo-1595">
          <mxGeometry relative="1" as="geometry" />
        </mxCell>
        <mxCell id="VRsQ3zNPmExDssfTMrNo-1591" value="contests" style="rounded=1;whiteSpace=wrap;html=1;sketch=0;fontColor=#E4FDE1;strokeColor=#028090;fillColor=#F45B69;" vertex="1" parent="1">
          <mxGeometry x="700" y="290" width="120" height="60" as="geometry" />
        </mxCell>
        <mxCell id="VRsQ3zNPmExDssfTMrNo-1593" value="" style="rounded=1;whiteSpace=wrap;html=1;fontColor=#E4FDE1;strokeColor=#028090;fillColor=#F45B69;sketch=0;" vertex="1" parent="1">
          <mxGeometry x="700" y="580" width="120" height="60" as="geometry" />
        </mxCell>
        <mxCell id="VRsQ3zNPmExDssfTMrNo-1598" value="" style="edgeStyle=orthogonalEdgeStyle;curved=0;rounded=1;sketch=0;orthogonalLoop=1;jettySize=auto;html=1;fontColor=#E4FDE1;strokeColor=#028090;fillColor=#F45B69;" edge="1" parent="1" source="VRsQ3zNPmExDssfTMrNo-1595" target="VRsQ3zNPmExDssfTMrNo-1597">
          <mxGeometry relative="1" as="geometry" />
        </mxCell>
        <mxCell id="VRsQ3zNPmExDssfTMrNo-1595" value="" style="rounded=1;whiteSpace=wrap;html=1;fontColor=#E4FDE1;strokeColor=#028090;fillColor=#F45B69;sketch=0;" vertex="1" parent="1">
          <mxGeometry x="900" y="290" width="120" height="60" as="geometry" />
        </mxCell>
        <mxCell id="VRsQ3zNPmExDssfTMrNo-1597" value="" style="rounded=1;whiteSpace=wrap;html=1;fontColor=#E4FDE1;strokeColor=#028090;fillColor=#F45B69;sketch=0;" vertex="1" parent="1">
          <mxGeometry x="1005" y="110" width="117" height="60" as="geometry" />
        </mxCell>
        <mxCell id="VRsQ3zNPmExDssfTMrNo-1599" value="" style="rounded=1;whiteSpace=wrap;html=1;sketch=0;fontColor=#E4FDE1;strokeColor=#028090;fillColor=#F45B69;" vertex="1" parent="1">
          <mxGeometry x="1060" y="290" width="120" height="60" as="geometry" />
        </mxCell>
      </root>
    </mxGraphModel>
  </diagram>
</mxfile>
